<svg width="32" height="32" viewBox="0 0 32 32" fill="none" xmlns="http://www.w3.org/2000/svg">
<circle cx="16" cy="16" r="16" fill="white"/>
<circle cx="15.9993" cy="15.9993" r="13.2571" fill="#1890FF"/>
<path d="M22.5984 11.2719H20.0484L19.4409 9.56938C19.399 9.45288 19.3221 9.35218 19.2207 9.28103C19.1194 9.20989 18.9985 9.17177 18.8747 9.17188H13.1222C12.8691 9.17188 12.6422 9.33125 12.5578 9.56938L11.9484 11.2719H9.39844C8.56969 11.2719 7.89844 11.9431 7.89844 12.7719V21.3219C7.89844 22.1506 8.56969 22.8219 9.39844 22.8219H22.5984C23.4272 22.8219 24.0984 22.1506 24.0984 21.3219V12.7719C24.0984 11.9431 23.4272 11.2719 22.5984 11.2719ZM15.9984 19.8219C14.3409 19.8219 12.9984 18.4794 12.9984 16.8219C12.9984 15.1644 14.3409 13.8219 15.9984 13.8219C17.6559 13.8219 18.9984 15.1644 18.9984 16.8219C18.9984 18.4794 17.6559 19.8219 15.9984 19.8219ZM14.1984 16.8219C14.1984 17.2993 14.3881 17.7571 14.7256 18.0947C15.0632 18.4322 15.521 18.6219 15.9984 18.6219C16.4758 18.6219 16.9337 18.4322 17.2712 18.0947C17.6088 17.7571 17.7984 17.2993 17.7984 16.8219C17.7984 16.3445 17.6088 15.8866 17.2712 15.5491C16.9337 15.2115 16.4758 15.0219 15.9984 15.0219C15.521 15.0219 15.0632 15.2115 14.7256 15.5491C14.3881 15.8866 14.1984 16.3445 14.1984 16.8219Z" fill="white"/>
</svg>
