<svg width="32" height="32" viewBox="0 0 32 32" fill="none" xmlns="http://www.w3.org/2000/svg">
<rect x="0.5" y="0.5" width="31" height="31" rx="2.5" stroke="#1890FF"/>
<path d="M15.4635 18.6191C15.4766 18.6359 15.4934 18.6495 15.5126 18.6589C15.5318 18.6682 15.5529 18.6731 15.5742 18.6731C15.5956 18.6731 15.6166 18.6682 15.6358 18.6589C15.655 18.6495 15.6718 18.6359 15.685 18.6191L17.6537 16.1283C17.7258 16.0369 17.6607 15.9016 17.543 15.9016H16.2404V9.95312C16.2404 9.87578 16.1771 9.8125 16.0998 9.8125H15.0451C14.9678 9.8125 14.9045 9.87578 14.9045 9.95312V15.8998H13.6055C13.4877 15.8998 13.4227 16.0352 13.4947 16.1266L15.4635 18.6191ZM22.0078 18.0039H20.9531C20.8758 18.0039 20.8125 18.0672 20.8125 18.1445V20.8516H10.3359V18.1445C10.3359 18.0672 10.2727 18.0039 10.1953 18.0039H9.14062C9.06328 18.0039 9 18.0672 9 18.1445V21.625C9 21.9361 9.25137 22.1875 9.5625 22.1875H21.5859C21.8971 22.1875 22.1484 21.9361 22.1484 21.625V18.1445C22.1484 18.0672 22.0852 18.0039 22.0078 18.0039Z" fill="#1890FF"/>
</svg>
