<svg width="24" height="24" viewBox="0 0 24 24" fill="none" xmlns="http://www.w3.org/2000/svg">
<path fill-rule="evenodd" clip-rule="evenodd" d="M10.293 15.7079C10.4819 15.8947 10.7368 15.9995 11.0025 15.9995C11.2682 15.9995 11.5231 15.8947 11.712 15.7079L14.677 12.7689C14.892 12.5509 14.999 12.2689 14.999 11.9899C14.999 11.7109 14.892 11.4339 14.677 11.2209L11.722 8.29093C11.533 8.10437 11.2781 7.99976 11.0125 7.99976C10.7469 7.99976 10.492 8.10437 10.303 8.29093C10.2098 8.38276 10.1358 8.4922 10.0853 8.61289C10.0348 8.73358 10.0088 8.8631 10.0088 8.99393C10.0088 9.12476 10.0348 9.25429 10.0853 9.37497C10.1358 9.49566 10.2098 9.6051 10.303 9.69693L12.62 11.9949L10.293 14.3019C10.2002 14.394 10.1265 14.5035 10.0762 14.6241C10.0259 14.7448 10.0001 14.8742 10.0001 15.0049C10.0001 15.1356 10.0259 15.2651 10.0762 15.3857C10.1265 15.5064 10.2002 15.6159 10.293 15.7079Z" fill="#42526E"/>
</svg>
