<svg width="21" height="17" viewBox="0 0 21 17" fill="none" xmlns="http://www.w3.org/2000/svg">
<path d="M5.5 5C6.88071 5 8 3.88071 8 2.5C8 1.11929 6.88071 0 5.5 0C4.11929 0 3 1.11929 3 2.5C3 3.88071 4.11929 5 5.5 5Z" fill="#42526E"/>
<path d="M7.33333 6.00162H3.66667C2.73505 5.9803 1.82653 6.17048 1.13952 6.53061C0.452507 6.89075 0.0428441 7.39158 0 7.92372V10.6733C0.0145673 10.9837 0.199365 11.2836 0.528311 11.5308C0.857258 11.7779 1.31374 11.9598 1.83333 12.0507V15.8007C1.80298 16.0979 1.97806 16.3901 2.32091 16.6144C2.66376 16.8387 3.14699 16.9772 3.66667 17H7.33333C7.85301 16.9772 8.33624 16.8387 8.67909 16.6144C9.02194 16.3901 9.19702 16.0979 9.16667 15.8007V12.0507C9.68626 11.9598 10.1427 11.7779 10.4717 11.5308C10.8006 11.2836 10.9854 10.9837 11 10.6733V7.92372C10.9572 7.39158 10.5475 6.89075 9.86048 6.53061C9.17348 6.17048 8.26495 5.9803 7.33333 6.00162Z" fill="#42526E"/>
<path d="M12.1687 5.88192C12.2854 5.88192 12.3979 5.90218 12.5062 5.93595L14.5271 3.25948C14.6562 3.0884 14.8958 3.05689 15.0521 3.20095C15.2042 3.33827 15.225 3.58363 15.0979 3.7502L13.1 6.39741C13.2354 6.6 13.3167 6.84989 13.3167 7.12001C13.3167 7.62199 13.0375 8.05643 12.6396 8.25H20.4792C20.7667 8.25 21 7.99791 21 7.68724V0.562756C21 0.252115 20.7667 0 20.4792 0H10.5208C10.2333 0 10 0.252115 10 0.562756V5.24038L10.4708 5.88418H12.1687V5.88192Z" fill="#42526E"/>
</svg>
