<svg width="20" height="20" viewBox="0 0 20 20" fill="none" xmlns="http://www.w3.org/2000/svg">
<path d="M19.4167 2H14.5833C14.2612 2 14 2.26117 14 2.58333C14 2.9055 14.2612 3.16667 14.5833 3.16667H19.4167C19.7388 3.16667 20 2.9055 20 2.58333C20 2.26117 19.7388 2 19.4167 2Z" fill="#42526E"/>
<path d="M19.4167 4.91667H14.5833C14.2612 4.91667 14 5.17783 14 5.5C14 5.82217 14.2612 6.08333 14.5833 6.08333H19.4167C19.7388 6.08333 20 5.82217 20 5.5C20 5.17783 19.7388 4.91667 19.4167 4.91667Z" fill="#42526E"/>
<path d="M17.6167 7.83333H14.5833C14.2612 7.83333 14 8.0945 14 8.41667C14 8.73883 14.2612 9 14.5833 9H17.6167C17.9388 9 18.2 8.73883 18.2 8.41667C18.2 8.0945 17.9388 7.83333 17.6167 7.83333Z" fill="#42526E"/>
<path fill-rule="evenodd" clip-rule="evenodd" d="M7.99283 12.6719C11.0678 12.6719 13.6945 13.1377 13.6945 14.9985C13.6945 16.8602 11.0845 17.3419 7.99283 17.3419C4.91783 17.3419 2.29199 16.8769 2.29199 15.0152C2.29199 13.1535 4.90116 12.6719 7.99283 12.6719Z" stroke="#42526E" stroke-width="1.5" stroke-linecap="round" stroke-linejoin="round"/>
<path fill-rule="evenodd" clip-rule="evenodd" d="M7.99318 10.0155C5.96484 10.0155 4.33984 8.38967 4.33984 6.36134C4.33984 4.33384 5.96484 2.70801 7.99318 2.70801C10.0215 2.70801 11.6473 4.33384 11.6473 6.36134C11.6473 8.38967 10.0215 10.0155 7.99318 10.0155Z" stroke="#42526E" stroke-width="1.5" stroke-linecap="round" stroke-linejoin="round"/>
</svg>
