<svg width="20" height="20" viewBox="0 0 20 20" fill="none" xmlns="http://www.w3.org/2000/svg">
<path d="M15.2082 5.8335C15.2082 6.10976 15.0984 6.37471 14.9031 6.57007C14.7077 6.76542 14.4428 6.87516 14.1665 6.87516C13.8903 6.87516 13.6253 6.76542 13.43 6.57007C13.2346 6.37471 13.1249 6.10976 13.1249 5.8335C13.1249 5.55723 13.2346 5.29228 13.43 5.09693C13.6253 4.90158 13.8903 4.79183 14.1665 4.79183C14.4428 4.79183 14.7077 4.90158 14.9031 5.09693C15.0984 5.29228 15.2082 5.55723 15.2082 5.8335ZM12.9165 1.7085C11.4692 1.70938 10.0813 2.28474 9.05787 3.30818C8.03443 4.33162 7.45907 5.71946 7.45819 7.16683C7.45819 7.48933 7.49986 7.80016 7.54986 8.08683C7.55719 8.12292 7.55571 8.16023 7.54555 8.19563C7.5354 8.23102 7.51687 8.26345 7.49152 8.29016L2.29569 13.4868C1.86586 13.9164 1.62426 14.4991 1.62402 15.1068V16.9168C1.62402 17.7218 2.27736 18.3752 3.08236 18.3752H5.16569C5.55246 18.3752 5.9234 18.2215 6.19689 17.948C6.47038 17.6745 6.62402 17.3036 6.62402 16.9168V15.8752H8.08319C8.65819 15.8752 9.12486 15.4085 9.12486 14.8335V13.3752H10.5832C10.8529 13.3753 11.1122 13.2709 11.3065 13.0837C11.5008 12.8966 11.6149 12.6414 11.6249 12.3718C12.0382 12.4785 12.4749 12.5418 12.9165 12.5418C14.3639 12.5409 15.7517 11.9656 16.7752 10.9421C17.7986 9.9187 18.374 8.53086 18.3749 7.0835C18.3749 4.05766 15.914 1.7085 12.9165 1.7085ZM8.70819 7.16683C8.70907 6.05098 9.15273 4.98109 9.94176 4.19206C10.7308 3.40304 11.8007 2.95938 12.9165 2.9585C15.2515 2.9585 17.1249 4.776 17.1249 7.0835C17.124 8.19934 16.6803 9.26924 15.8913 10.0583C15.1023 10.8473 14.0324 11.2909 12.9165 11.2918C12.3499 11.2918 11.7665 11.1493 11.2457 10.9252C11.1506 10.8843 11.0468 10.8677 10.9436 10.8769C10.8405 10.8861 10.7413 10.9207 10.6549 10.9777C10.5684 11.0347 10.4975 11.1123 10.4485 11.2035C10.3995 11.2947 10.3739 11.3966 10.374 11.5002V12.1252H8.91652C8.34152 12.1252 7.87486 12.5918 7.87486 13.1668V14.6252H6.41652C5.84152 14.6252 5.37486 15.0918 5.37486 15.6668V16.9168C5.37486 16.9721 5.35291 17.0251 5.31384 17.0641C5.27477 17.1032 5.22178 17.1252 5.16652 17.1252H3.08319C3.02794 17.1252 2.97495 17.1032 2.93588 17.0641C2.89681 17.0251 2.87486 16.9721 2.87486 16.9168V15.1068C2.87486 14.831 2.98486 14.5652 3.17986 14.3702L8.37652 9.17433C8.54379 9.00561 8.66793 8.79907 8.73843 8.5722C8.80893 8.34532 8.82371 8.1048 8.78152 7.871C8.73681 7.63883 8.71227 7.40323 8.70819 7.16683Z" fill="#42526E"/>
</svg>
