<svg width="30" height="30" viewBox="0 0 30 30" fill="none" xmlns="http://www.w3.org/2000/svg">
<path d="M15 2.5C18.3125 2.5 21.5 3.8125 23.8375 6.1625C24.9998 7.3219 25.9216 8.69941 26.5501 10.216C27.1786 11.7326 27.5014 13.3583 27.5 15C27.5 18.3125 26.1875 21.5 23.8375 23.8375C22.6781 24.9998 21.3006 25.9216 19.784 26.5501C18.2674 27.1786 16.6417 27.5014 15 27.5C11.6875 27.5 8.5 26.1875 6.1625 23.8375C5.00025 22.6781 4.07841 21.3006 3.4499 19.784C2.82139 18.2674 2.49858 16.6417 2.5 15C2.5 8.125 8.125 2.5 15 2.5ZM15 5C9.475 5 5 9.475 5 15C5 20.525 9.475 25 15 25C20.525 25 25 20.525 25 15C25 12.35 23.95 9.8 22.075 7.925C20.1974 6.05105 17.6528 4.99901 15 5ZM16.875 17.5L19.4375 21.05C18.1875 21.9625 16.6625 22.5 15 22.5C13.3375 22.5 11.8125 21.9625 10.5625 21.05L13.125 17.5C13.675 17.9 14.3125 18.125 15 18.125C15.6875 18.125 16.325 17.9 16.875 17.5ZM15 13.75C15.6875 13.75 16.25 14.3125 16.25 15C16.25 15.6875 15.6875 16.25 15 16.25C14.3125 16.25 13.75 15.6875 13.75 15C13.75 14.3125 14.3125 13.75 15 13.75ZM11.65 8.2875L13.6 12.2C12.575 12.7125 11.875 13.75 11.875 15H7.5C7.5 12.0625 9.1875 9.525 11.65 8.2875ZM18.35 8.2875C20.8125 9.525 22.5 12.0625 22.5 15H18.125C18.125 13.75 17.425 12.7125 16.4 12.2L18.35 8.2875Z" fill="#172B4D"/>
</svg>
