<svg width="21" height="17" viewBox="0 0 21 17" fill="none" xmlns="http://www.w3.org/2000/svg">
<path d="M5.5 5C6.88071 5 8 3.88071 8 2.5C8 1.11929 6.88071 0 5.5 0C4.11929 0 3 1.11929 3 2.5C3 3.88071 4.11929 5 5.5 5Z" fill="#42526E"/>
<path d="M7.33333 6.00162H3.66667C2.73505 5.9803 1.82653 6.17048 1.13952 6.53061C0.452507 6.89075 0.0428441 7.39158 0 7.92372V10.6733C0.0145673 10.9837 0.199365 11.2836 0.528311 11.5308C0.857258 11.7779 1.31374 11.9598 1.83333 12.0507V15.8007C1.80298 16.0979 1.97806 16.3901 2.32091 16.6144C2.66376 16.8387 3.14699 16.9772 3.66667 17H7.33333C7.85301 16.9772 8.33624 16.8387 8.67909 16.6144C9.02194 16.3901 9.19702 16.0979 9.16667 15.8007V12.0507C9.68626 11.9598 10.1427 11.7779 10.4717 11.5308C10.8006 11.2836 10.9854 10.9837 11 10.6733V7.92372C10.9572 7.39158 10.5475 6.89075 9.86048 6.53061C9.17348 6.17048 8.26495 5.9803 7.33333 6.00162Z" fill="#42526E"/>
<path d="M19.9938 4.5C19.9938 4.302 19.9658 4.122 19.9379 3.933L21 3.024L20.0683 1.467L18.7174 1.908C18.4193 1.665 18.0839 1.476 17.7112 1.341L17.4317 0H15.5683L15.2888 1.341C14.9161 1.476 14.5807 1.665 14.2826 1.908L12.9317 1.467L12 3.024L13.0621 3.933C13.0342 4.122 13.0062 4.302 13.0062 4.5C13.0062 4.698 13.0342 4.878 13.0621 5.067L12 5.976L12.9317 7.533L14.2826 7.092C14.5807 7.335 14.9161 7.524 15.2888 7.659L15.5683 9H17.4317L17.7112 7.659C18.0839 7.524 18.4193 7.335 18.7174 7.092L20.0683 7.533L21 5.976L19.9379 5.067C19.9658 4.878 19.9938 4.698 19.9938 4.5ZM16.5 6.3C15.4752 6.3 14.6366 5.49 14.6366 4.5C14.6366 3.51 15.4752 2.7 16.5 2.7C17.5248 2.7 18.3634 3.51 18.3634 4.5C18.3634 5.49 17.5248 6.3 16.5 6.3Z" fill="#42526E"/>
</svg>
