<svg width="11" height="17" viewBox="0 0 11 17" fill="none" xmlns="http://www.w3.org/2000/svg">
<path d="M5.5 5C6.88071 5 8 3.88071 8 2.5C8 1.11929 6.88071 0 5.5 0C4.11929 0 3 1.11929 3 2.5C3 3.88071 4.11929 5 5.5 5Z" fill="#42526E"/>
<path d="M7.33333 6.00162H3.66667C2.73505 5.9803 1.82653 6.17048 1.13952 6.53061C0.452507 6.89075 0.0428441 7.39158 0 7.92372V10.6733C0.0145673 10.9837 0.199365 11.2836 0.528311 11.5308C0.857258 11.7779 1.31374 11.9598 1.83333 12.0507V15.8007C1.80298 16.0979 1.97806 16.3901 2.32091 16.6144C2.66376 16.8387 3.14699 16.9772 3.66667 17H7.33333C7.85301 16.9772 8.33624 16.8387 8.67909 16.6144C9.02194 16.3901 9.19702 16.0979 9.16667 15.8007V12.0507C9.68626 11.9598 10.1427 11.7779 10.4717 11.5308C10.8006 11.2836 10.9854 10.9837 11 10.6733V7.92372C10.9572 7.39158 10.5475 6.89075 9.86048 6.53061C9.17348 6.17048 8.26495 5.9803 7.33333 6.00162Z" fill="#42526E"/>
</svg>
