<svg width="14" height="23" viewBox="0 0 14 23" fill="none" xmlns="http://www.w3.org/2000/svg">
<path d="M7.65975 4.29863C7.69358 4.33159 7.83825 4.45604 7.95725 4.57197C8.70567 5.25162 9.93067 7.02464 10.3046 7.95263C10.3647 8.09356 10.4918 8.44987 10.5 8.64024C10.5 8.82266 10.458 8.99655 10.3728 9.16249C10.2538 9.36934 10.0666 9.53527 9.8455 9.6262C9.69208 9.68473 9.233 9.77565 9.22483 9.77565C8.72258 9.86658 7.9065 9.91659 7.00467 9.91659C6.14542 9.91659 5.36258 9.86658 4.85275 9.79213C4.84458 9.78361 4.27408 9.69269 4.07867 9.59324C3.72167 9.41082 3.5 9.05451 3.5 8.6732V8.64024C3.50875 8.39191 3.73042 7.86966 3.73858 7.86966C4.11308 6.99168 5.278 5.25958 6.05208 4.56344C6.05208 4.56344 6.251 4.36739 6.37525 4.28215C6.55375 4.14917 6.77483 4.08325 6.99592 4.08325C7.24267 4.08325 7.4725 4.1577 7.65975 4.29863" stroke="#9EA3A9"/>
<path d="M6.34025 18.7012C6.30642 18.6682 6.16175 18.5438 6.04275 18.4279C5.29433 17.7482 4.06933 15.9752 3.69542 15.0472C3.63533 14.9063 3.50817 14.55 3.5 14.3596C3.5 14.1772 3.542 14.0033 3.62717 13.8374C3.74617 13.6305 3.93342 13.4646 4.1545 13.3736C4.30792 13.3151 4.767 13.2242 4.77517 13.2242C5.27742 13.1333 6.0935 13.0833 6.99533 13.0833C7.85458 13.0833 8.63742 13.1333 9.14725 13.2077C9.15542 13.2162 9.72592 13.3072 9.92133 13.4066C10.2783 13.589 10.5 13.9453 10.5 14.3266V14.3596C10.4912 14.6079 10.2696 15.1302 10.2614 15.1302C9.88692 16.0082 8.722 17.7403 7.94792 18.4364C7.94792 18.4364 7.749 18.6324 7.62475 18.7177C7.44625 18.8507 7.22517 18.9166 7.00408 18.9166C6.75733 18.9166 6.5275 18.8421 6.34025 18.7012" stroke="#9EA3A9"/>
</svg>
