<svg width="32" height="32" viewBox="0 0 32 32" fill="none" xmlns="http://www.w3.org/2000/svg">
<rect x="0.5" y="0.5" width="31" height="31" rx="2.5" stroke="#1890FF"/>
<path d="M14.0312 12.5838H15.3303V18.5305C15.3303 18.6079 15.3936 18.6711 15.4709 18.6711H16.5256C16.6029 18.6711 16.6662 18.6079 16.6662 18.5305V12.5838H17.9688C18.0865 12.5838 18.1516 12.4485 18.0795 12.3571L16.1107 9.8645C16.0976 9.84769 16.0808 9.8341 16.0616 9.82475C16.0424 9.81541 16.0213 9.81055 16 9.81055C15.9787 9.81055 15.9576 9.81541 15.9384 9.82475C15.9192 9.8341 15.9024 9.84769 15.8893 9.8645L13.9205 12.3553C13.8484 12.4485 13.9135 12.5838 14.0312 12.5838ZM22.4336 18.0032H21.3789C21.3016 18.0032 21.2383 18.0665 21.2383 18.1438V20.8508H10.7617V18.1438C10.7617 18.0665 10.6984 18.0032 10.6211 18.0032H9.56641C9.48906 18.0032 9.42578 18.0665 9.42578 18.1438V21.6243C9.42578 21.9354 9.67715 22.1868 9.98828 22.1868H22.0117C22.3229 22.1868 22.5742 21.9354 22.5742 21.6243V18.1438C22.5742 18.0665 22.5109 18.0032 22.4336 18.0032Z" fill="#1890FF"/>
</svg>
